<?xml version="1.0" encoding="UTF-8"?>
<svg version="1.1" xmlns="http://www.w3.org/2000/svg" width="1200" height="1200">
<path d="M0 0 C0.91257568 0.15194824 1.82515137 0.30389648 2.76538086 0.46044922 C24.41034196 4.28837608 38.17886709 11.53457697 50.98144531 29.50488281 C58.48474447 40.65334908 64.70423944 58.7392082 62.625 72.1875 C62.11012036 74.13228996 61.56489119 76.06914346 61 78 C60.709596 79.45784177 60.4291995 80.9176959 60.15625 82.37890625 C56.9980119 98.00337225 49.24547857 109.84249883 36.30859375 119.28125 C30.53913507 123.57661687 25.84799202 129.10314293 21.1796875 134.53515625 C18.18656893 137.91984768 15.09179023 141.20555529 12 144.5 C6.6666497 150.17446008 6.6666497 150.17446008 1.5 156 C-2.44229887 160.58267229 -6.60869139 164.9569323 -10.74169922 169.36669922 C-14.7924618 173.69318507 -18.78401957 178.0658293 -22.734375 182.484375 C-25.9300606 186.03268798 -29.17375265 189.53577726 -32.41625977 193.04125977 C-37.17111797 198.18187101 -41.90375773 203.34253683 -46.63232422 208.50732422 C-48.02579152 210.02814876 -49.42087751 211.54747324 -50.81640625 213.06640625 C-55.04523476 217.67073948 -59.26403086 222.28276595 -63.4375 226.9375 C-68.89328256 233.01821765 -74.44840431 239.00690686 -80 245 C-69.24560971 244.39629291 -58.71131474 242.88138525 -48.07373047 241.25610352 C-46.19811929 240.97309106 -44.32244608 240.69048952 -42.44671631 240.40826416 C-37.38840387 239.6459601 -32.33099113 238.8778367 -27.27374029 238.10852551 C-21.96228503 237.30148174 -16.65005495 236.49956917 -11.33792114 235.69700623 C-2.42222808 234.34926132 6.49292265 232.99797748 15.40771484 231.64428711 C26.82746831 229.9102441 38.24810891 228.18211781 49.66903877 226.45584202 C59.5203227 224.96676267 69.37118294 223.47488749 79.22198248 221.9826076 C82.37351248 221.50531472 85.52510193 221.02841589 88.67670059 220.55157661 C93.63956297 219.80051554 98.60215649 219.04770116 103.56455231 218.29356384 C105.37882248 218.0180951 107.19317492 217.74316749 109.00761795 217.46883965 C111.49718615 217.09233048 113.98650249 216.71423199 116.47561646 216.33473206 C117.23455208 216.2190384 117.99348771 216.10334475 118.77542138 215.98414522 C123.84284935 215.20229414 128.88321267 214.31961059 133.91204643 213.3157196 C136.90299792 212.86345762 139.43924488 213.20774493 142.375 213.87109375 C144.00695313 214.23944336 144.00695313 214.23944336 145.671875 214.61523438 C146.77015625 214.88658203 147.8684375 215.15792969 149 215.4375 C150.09828125 215.67404297 151.1965625 215.91058594 152.328125 216.15429688 C160.32196213 218.04383539 166.32983372 221.27777653 173 226 C173.79003418 226.51030762 174.58006836 227.02061523 175.39404297 227.54638672 C180.9594704 231.16491194 184.57039303 236.10680953 188.375 241.4375 C188.88732178 242.15341309 189.39964355 242.86932617 189.92749023 243.60693359 C197.08949465 254.02244939 203.83068229 271.85453232 201.625 284.5625 C201.09654167 286.37889501 200.55249091 288.1907701 200 290 C199.69537112 291.52245287 199.40367896 293.04752065 199.12109375 294.57421875 C195.57077329 312.58114049 186.41418126 325.12944806 171.3125 335.5 C169.78846318 336.56164017 168.26504594 337.62417021 166.7421875 338.6875 C165.9594043 339.23277344 165.17662109 339.77804687 164.37011719 340.33984375 C154.11368327 347.52399606 144.02728323 354.94268777 134.03222656 362.48486328 C128.38382311 366.73717293 122.65921492 370.87801137 116.91967773 375.00610352 C109.03008877 380.68556315 101.20931251 386.45674297 93.39111328 392.23388672 C89.43008838 395.15956103 85.46484283 398.07950306 81.5 401 C79.91664621 402.1666389 78.33331288 403.33330558 76.75 404.5 C67.25 411.5 57.75 418.5 48.25 425.5 C47.46616943 426.07758057 46.68233887 426.65516113 45.87475586 427.25024414 C44.29231815 428.41620806 42.70979869 429.58206104 41.12719727 430.74780273 C37.15448113 433.67431443 33.18323006 436.60277534 29.21484375 439.53515625 C21.44400126 445.27423482 13.65511304 450.98429619 5.8125 456.625 C0.16136904 460.68967678 -5.44355697 464.8068222 -11 469 C-17.30002511 473.75432309 -23.67297707 478.3976986 -30.08032227 483.00610352 C-37.96991123 488.68556315 -45.79068749 494.45674297 -53.60888672 500.23388672 C-57.56991162 503.15956103 -61.53515717 506.07950306 -65.5 509 C-67.08335379 510.1666389 -68.66668712 511.33330558 -70.25 512.5 C-86.08333333 524.16666667 -101.91666667 535.83333333 -117.75 547.5 C-118.53383057 548.07758057 -119.31766113 548.65516113 -120.12524414 549.25024414 C-121.70768185 550.41620806 -123.29020131 551.58206104 -124.87280273 552.74780273 C-128.84551887 555.67431443 -132.81676994 558.60277534 -136.78515625 561.53515625 C-145.23340257 567.77471072 -153.71006584 573.9706422 -162.23291016 580.10791016 C-170.06877486 585.75718083 -177.83992854 591.49312892 -185.60888672 597.23388672 C-189.56991162 600.15956103 -193.53515717 603.07950306 -197.5 606 C-199.08335379 607.1666389 -200.66668712 608.33330558 -202.25 609.5 C-211.75 616.5 -221.25 623.5 -230.75 630.5 C-231.53383057 631.07758057 -232.31766113 631.65516113 -233.12524414 632.25024414 C-234.70768185 633.41620806 -236.29020131 634.58206104 -237.87280273 635.74780273 C-241.84551887 638.67431443 -245.81676994 641.60277534 -249.78515625 644.53515625 C-257.55599874 650.27423482 -265.34488696 655.98429619 -273.1875 661.625 C-278.83863096 665.68967678 -284.44355697 669.8068222 -290 674 C-296.30002511 678.75432309 -302.67297707 683.3976986 -309.08032227 688.00610352 C-316.96991123 693.68556315 -324.79068749 699.45674297 -332.60888672 705.23388672 C-336.56991162 708.15956103 -340.53515717 711.07950306 -344.5 714 C-346.08335379 715.1666389 -347.66668712 716.33330558 -349.25 717.5 C-358.75 724.5 -368.25 731.5 -377.75 738.5 C-378.53383057 739.07758057 -379.31766113 739.65516113 -380.12524414 740.25024414 C-381.70768185 741.41620806 -383.29020131 742.58206104 -384.87280273 743.74780273 C-388.84551887 746.67431443 -392.81676994 749.60277534 -396.78515625 752.53515625 C-404.55599874 758.27423482 -412.34488696 763.98429619 -420.1875 769.625 C-425.83863096 773.68967678 -431.44355697 777.8068222 -437 782 C-443.30002511 786.75432309 -449.67297707 791.3976986 -456.08032227 796.00610352 C-463.96991123 801.68556315 -471.79068749 807.45674297 -479.60888672 813.23388672 C-483.56991162 816.15956103 -487.53515717 819.07950306 -491.5 822 C-493.08335379 823.1666389 -494.66668712 824.33330558 -496.25 825.5 C-505.75 832.5 -515.25 839.5 -524.75 846.5 C-525.53383057 847.07758057 -526.31766113 847.65516113 -527.12524414 848.25024414 C-528.70768185 849.41620806 -530.29020131 850.58206104 -531.87280273 851.74780273 C-535.84551887 854.67431443 -539.81676994 857.60277534 -543.78515625 860.53515625 C-552.23340257 866.77471072 -560.71006584 872.9706422 -569.23291016 879.10791016 C-577.06877486 884.75718083 -584.83992854 890.49312892 -592.60888672 896.23388672 C-594.98938493 897.99215954 -597.37132897 899.74845192 -599.75390625 901.50390625 C-600.53789795 902.08172852 -601.32188965 902.65955078 -602.12963867 903.25488281 C-603.70297208 904.41320882 -605.27734566 905.57012339 -606.8527832 906.72558594 C-610.96371618 909.74398708 -615.0484724 912.79097255 -619.1015625 915.88671875 C-619.94267578 916.52287109 -620.78378906 917.15902344 -621.65039062 917.81445312 C-623.24766908 919.02344289 -624.8380833 920.2415809 -626.41992188 921.47070312 C-631.4151984 925.23148942 -635.97670986 927.3896327 -642 929 C-642.81952148 929.23887939 -643.63904297 929.47775879 -644.48339844 929.72387695 C-655.16132927 932.77311871 -664.09639433 935.05642141 -675 932 C-676.93166016 931.69255859 -676.93166016 931.69255859 -678.90234375 931.37890625 C-693.63465207 928.94252035 -705.75151692 921.11628964 -714.75 909.1875 C-716.19133004 907.14215934 -717.60842656 905.07951294 -719 903 C-719.83144531 901.9996875 -720.66289063 900.999375 -721.51953125 899.96875 C-725.25943367 894.73072481 -726.42155177 888.47043105 -727.9375 882.3125 C-728.26556641 881.10916016 -728.59363281 879.90582031 -728.93164062 878.66601562 C-730.99817347 870.43988167 -730.99807327 864.20280827 -729 856 C-728.6970193 854.40015455 -728.39609726 852.79991726 -728.09765625 851.19921875 C-723.71015185 831.10745941 -710.80920135 818.07383135 -695.05078125 805.48046875 C-691.46373874 802.56398732 -687.98135173 799.5410953 -684.5 796.5 C-680.21821087 792.76555152 -675.91666533 789.07539575 -671.5 785.5 C-666.46651459 781.42242873 -661.57666691 777.19494085 -656.69189453 772.94189453 C-651.03735121 768.0212235 -645.32527914 763.17218901 -639.59277344 758.34277344 C-636.89185198 756.06578569 -634.19619693 753.7825781 -631.5 751.5 C-628.26301005 748.76018685 -625.02546464 746.02104448 -621.78515625 743.28515625 C-620.71086274 742.37769267 -619.63664413 741.4701404 -618.5625 740.5625 C-618.03027832 740.11277832 -617.49805664 739.66305664 -616.94970703 739.19970703 C-613.50818184 736.28748821 -610.08346344 733.35643692 -606.66601562 730.41601562 C-602.00818074 726.40834744 -597.33696364 722.43158387 -592.5625 718.5625 C-587.45692535 714.41939009 -582.50199947 710.1176955 -577.54711914 705.79711914 C-573.91262149 702.63534162 -570.24479157 699.53149794 -566.5 696.5 C-561.46651459 692.42242873 -556.57666691 688.19494085 -551.69189453 683.94189453 C-546.03735121 679.0212235 -540.32527914 674.17218901 -534.59277344 669.34277344 C-531.89185198 667.06578569 -529.19619693 664.7825781 -526.5 662.5 C-523.26301005 659.76018685 -520.02546464 657.02104448 -516.78515625 654.28515625 C-515.71086274 653.37769267 -514.63664413 652.4701404 -513.5625 651.5625 C-513.03027832 651.11277832 -512.49805664 650.66305664 -511.94970703 650.19970703 C-508.50818184 647.28748821 -505.08346344 644.35643692 -501.66601562 641.41601562 C-497.00818074 637.40834744 -492.33696364 633.43158387 -487.5625 629.5625 C-482.51145932 625.46084729 -477.59871604 621.21408989 -472.69213867 616.94213867 C-467.03600979 612.01999483 -461.32240409 607.16935245 -455.58837891 602.33837891 C-452.91091047 600.08232573 -450.23627043 597.82293394 -447.5625 595.5625 C-447.03011719 595.11261719 -446.49773437 594.66273438 -445.94921875 594.19921875 C-442.50778995 591.28724054 -439.08328959 588.35628733 -435.66601562 585.41601562 C-431.00818074 581.40834744 -426.33696364 577.43158387 -421.5625 573.5625 C-416.45692535 569.41939009 -411.50199947 565.1176955 -406.54711914 560.79711914 C-402.91262149 557.63534162 -399.24479157 554.53149794 -395.5 551.5 C-390.46651459 547.42242873 -385.57666691 543.19494085 -380.69189453 538.94189453 C-375.03735121 534.0212235 -369.32527914 529.17218901 -363.59277344 524.34277344 C-361.43575184 522.52431562 -359.28222817 520.70174231 -357.12890625 518.87890625 C-355.50560208 517.50474229 -353.88170882 516.13127662 -352.2578125 514.7578125 C-350.06301858 512.90088223 -347.87057029 511.04123031 -345.6796875 509.1796875 C-345.12603516 508.70982422 -344.57238281 508.23996094 -344.00195312 507.75585938 C-342.4877413 506.47068799 -340.97430797 505.18459953 -339.4609375 503.8984375 C-336.42738008 501.34058283 -333.35592015 498.83006318 -330.28369141 496.31884766 C-328.79912949 495.10510971 -328.79912949 495.10510971 -327.28457642 493.86685181 C-326.5306662 493.25079071 -325.77675598 492.63472961 -325 492 C-351.96255552 495.76823909 -378.89576789 499.71097638 -405.81124878 503.8001709 C-410.64550882 504.53459456 -415.48007634 505.26697973 -420.31469727 505.99902344 C-423.58350215 506.49410065 -426.85229904 506.98923063 -430.12109375 507.484375 C-430.93397669 507.60749809 -431.74685963 507.73062119 -432.58437538 507.85747528 C-441.79301259 509.25250188 -451.00096274 510.65185157 -460.20751953 512.06054688 C-467.66979402 513.20230515 -475.13326077 514.33588434 -482.59820557 515.46005583 C-486.50720976 516.04905681 -490.41549887 516.64209407 -494.32232666 517.24537659 C-497.95923416 517.80693928 -501.59761504 518.35770236 -505.23739433 518.90032959 C-507.1913507 519.19448468 -509.14357941 519.50004639 -511.09571838 519.80603027 C-517.71852686 520.78177467 -523.38954015 521.11079501 -530 520 C-530.91571777 519.84772949 -531.83143555 519.69545898 -532.77490234 519.53857422 C-543.72286737 517.24627899 -553.02530813 515.01396878 -562 508 C-562.67417969 507.5978125 -563.34835937 507.195625 -564.04296875 506.78125 C-574.95104445 499.98819687 -581.68355925 486.82540513 -584.54467773 474.68969727 C-584.87617213 473.17468568 -585.19935141 471.65782775 -585.51367188 470.13916016 C-586.02916741 467.71891206 -586.02916741 467.71891206 -587.203125 464.32421875 C-591.25257752 450.25690421 -587.13846994 433.0633561 -580.59033203 420.23925781 C-577.57336103 415.35012653 -574.01612365 411.09100907 -570 407 C-569.18426514 406.13217896 -569.18426514 406.13217896 -568.35205078 405.24682617 C-564.2117668 400.9366271 -559.77335936 397.46718924 -554.875 394.0625 C-547.97457366 389.1763766 -541.20395133 384.15228212 -534.5 379 C-528.0687164 374.06552179 -521.59463869 369.21402434 -515 364.5 C-508.4302199 359.80207711 -501.97410895 354.97404325 -495.5625 350.0625 C-486.5656554 343.17056512 -477.48051484 336.41099134 -468.33837891 329.71337891 C-464.40950845 326.83461373 -460.48517558 323.94969924 -456.5625 321.0625 C-455.78116699 320.48741699 -454.99983398 319.91233398 -454.19482422 319.31982422 C-447.59345434 314.45316044 -441.03286549 309.53323965 -434.47851562 304.60351562 C-428.86619749 300.38664566 -423.22350439 296.21370656 -417.5625 292.0625 C-410.70986727 287.03632909 -403.93407055 281.91754731 -397.1875 276.75 C-390.99495719 272.00728746 -384.76848675 267.34868479 -378.38549805 262.86621094 C-372.98588743 259.04764934 -367.74802893 255.02324142 -362.5 251 C-356.7280256 246.57509176 -350.95239784 242.17982202 -345 238 C-339.13332365 233.87902189 -333.43870284 229.55020304 -327.75 225.1875 C-321.23472432 220.19152322 -314.67976426 215.27392837 -308 210.5 C-301.43017246 205.80214536 -294.97410658 200.97404143 -288.5625 196.0625 C-278.03281977 187.99635308 -267.36757408 180.12688479 -256.66601562 172.29101562 C-246.52248909 164.8592088 -236.46822068 157.32596657 -226.48486328 149.68017578 C-221.18846947 145.63485215 -215.83897706 141.69593368 -210.38549805 137.86621094 C-204.98588743 134.04764934 -199.74802893 130.02324142 -194.5 126 C-188.72801598 121.57508439 -182.95227659 117.18000491 -177 113 C-171.15860469 108.89442891 -165.48068719 104.5910019 -159.8125 100.25 C-150.73174286 93.29629644 -141.56454128 86.47254988 -132.33837891 79.71337891 C-128.40950845 76.83461373 -124.48517558 73.94969924 -120.5625 71.0625 C-119.78116699 70.48741699 -118.99983398 69.91233398 -118.19482422 69.31982422 C-111.59935017 64.45750697 -105.04454301 59.54208315 -98.49609375 54.61669922 C-92.71144014 50.2703003 -86.89482538 45.96964546 -81.0625 41.6875 C-78.03938046 39.46141842 -75.01880619 37.23192677 -72 35 C-71.35885254 34.52691406 -70.71770508 34.05382812 -70.05712891 33.56640625 C-64.60839374 29.52922261 -59.35067968 25.51439436 -54.6875 20.5625 C-40.65751353 6.35619413 -20.44778857 -3.87621561 0 0 Z " fill="#00AEFF" transform="translate(880,92)"/>
<path d="M0 0 C0.66 0.33 1.32 0.66 2 1 C1.37339478 1.66418945 1.37339478 1.66418945 0.73413086 2.34179688 C-1.19955151 4.39314917 -3.13103149 6.44656317 -5.0625 8.5 C-5.71927734 9.19609375 -6.37605469 9.8921875 -7.05273438 10.609375 C-10.88611078 14.68823856 -14.62230307 18.83103135 -18.29174805 23.05761719 C-21.08177831 26.23004548 -23.97869255 29.29985796 -26.875 32.375 C-31.55312803 37.36377052 -36.17932477 42.39000275 -40.73828125 47.48828125 C-43.40650602 50.45143933 -46.10596919 53.38435656 -48.8125 56.3125 C-49.31563721 56.85688721 -49.81877441 57.40127441 -50.3371582 57.9621582 C-52.95176648 60.78928901 -55.56917276 63.61381376 -58.1875 66.4375 C-64.36190819 73.08355594 -64.36190819 73.08355594 -70.375 79.875 C-74.36773898 84.49405098 -78.57085933 88.91688908 -82.74560547 93.37060547 C-86.03386419 96.88221102 -89.29546694 100.41140305 -92.5 104 C-96.27344281 108.22400315 -100.12838856 112.36628819 -104 116.5 C-109.40403344 122.27182091 -114.73693536 128.09898813 -120 134 C-125.92707543 140.62437842 -131.9212387 147.18195343 -137.95703125 153.70703125 C-140.83394774 156.81782854 -143.70047268 159.93800483 -146.5625 163.0625 C-147.23817017 163.80004517 -147.23817017 163.80004517 -147.92749023 164.55249023 C-149.28517963 166.03482316 -150.64263507 167.51736995 -152 169 C-153.81220092 170.97944081 -155.62468791 172.95861889 -157.4375 174.9375 C-157.88585205 175.42710205 -158.3342041 175.9167041 -158.79614258 176.42114258 C-161.22831838 179.07493682 -163.66677316 181.72269009 -166.11328125 184.36328125 C-166.6326123 184.92402344 -167.15194336 185.48476563 -167.68701172 186.0625 C-168.72085259 187.17869933 -169.75502699 188.29458984 -170.78955078 189.41015625 C-173.5259607 192.37018484 -176.19874948 195.36765879 -178.8125 198.4375 C-180.97330357 200.96902967 -183.19322741 203.01216776 -185.8125 205.0625 C-188.44039301 207.25042902 -189.13853903 208.29247128 -190.6875 211.5625 C-191.30577492 215.01897913 -191.30577492 215.01897913 -189.5625 217.875 C-186.37636511 220.51716064 -184.07590913 220.7648514 -180 221 C-180 220.34 -180 219.68 -180 219 C-173.56291634 218.03910419 -167.12573014 217.07889747 -160.68847656 216.11914062 C-158.50453435 215.79344809 -156.32061453 215.46760531 -154.13671875 215.14160156 C-140.41557204 213.09348168 -126.691531 211.07953437 -112.95300293 209.15112305 C-98.01598863 207.05305006 -83.09750823 204.92356639 -68.22851562 202.37939453 C-61.23764458 201.18804367 -54.23561595 200.14070181 -47.21170044 199.16464233 C-40.53497288 198.23280187 -33.87237877 197.22240526 -27.2109375 196.1875 C-11.20471111 193.71324407 4.81367008 191.32142775 20.83203125 188.92724609 C24.6380864 188.35818448 28.44406616 187.78862236 32.25 187.21875 C33.49173477 187.03291855 34.73346954 186.8470871 36.01283264 186.65562439 C43.08601961 185.59475219 50.15599254 184.51516485 57.22364807 183.41807556 C70.72190292 181.32299898 84.23823847 179.4041889 97.77416992 177.57006836 C108.26560169 176.14511974 118.7031771 174.58573513 129.12084961 172.6940918 C134.81574437 171.675111 140.52963477 170.79981312 146.25 169.9375 C147.83167969 169.69676758 147.83167969 169.69676758 149.4453125 169.45117188 C151.55683673 169.12979685 153.66856893 168.80978495 155.78051758 168.49121094 C158.03405056 168.14737926 160.28641212 167.79582169 162.5378418 167.43847656 C163.68937744 167.25639648 164.84091309 167.07431641 166.02734375 166.88671875 C167.06882568 166.72002686 168.11030762 166.55333496 169.18334961 166.3815918 C172.51702186 165.92995535 175.64481417 165.84394485 179 166 C175.53378226 169.6388891 172.02105735 172.55524085 167.875 175.4375 C166.62533707 176.31503362 165.37669461 177.19402167 164.12890625 178.07421875 C163.12947998 178.77877197 163.12947998 178.77877197 162.10986328 179.49755859 C158.31074185 182.20292694 154.56310736 184.97796229 150.8125 187.75 C150.01054199 188.34224365 149.20858398 188.9344873 148.38232422 189.54467773 C146.73985255 190.7580043 145.09760117 191.9716291 143.45556641 193.18554688 C139.47350802 196.12794675 135.48661232 199.0637748 131.5 202 C126.73617273 205.50887215 121.97328199 209.01897805 117.21484375 212.53515625 C108.76659743 218.77471072 100.28993416 224.9706422 91.76708984 231.10791016 C83.93122514 236.75718083 76.16007146 242.49312892 68.39111328 248.23388672 C64.43008838 251.15956103 60.46484283 254.07950306 56.5 257 C54.91664621 258.1666389 53.33331288 259.33330558 51.75 260.5 C42.25 267.5 32.75 274.5 23.25 281.5 C22.46616943 282.07758057 21.68233887 282.65516113 20.87475586 283.25024414 C19.29231815 284.41620806 17.70979869 285.58206104 16.12719727 286.74780273 C12.15448113 289.67431443 8.18323006 292.60277534 4.21484375 295.53515625 C-3.55599874 301.27423482 -11.34488696 306.98429619 -19.1875 312.625 C-24.83863096 316.68967678 -30.44355697 320.8068222 -36 325 C-42.30002511 329.75432309 -48.67297707 334.3976986 -55.08032227 339.00610352 C-62.96991123 344.68556315 -70.79068749 350.45674297 -78.60888672 356.23388672 C-82.56991162 359.15956103 -86.53515717 362.07950306 -90.5 365 C-92.08335379 366.1666389 -93.66668712 367.33330558 -95.25 368.5 C-104.75 375.5 -114.25 382.5 -123.75 389.5 C-124.53383057 390.07758057 -125.31766113 390.65516113 -126.12524414 391.25024414 C-127.70768185 392.41620806 -129.29020131 393.58206104 -130.87280273 394.74780273 C-134.84551887 397.67431443 -138.81676994 400.60277534 -142.78515625 403.53515625 C-150.55599874 409.27423482 -158.34488696 414.98429619 -166.1875 420.625 C-171.83863096 424.68967678 -177.44355697 428.8068222 -183 433 C-189.30002511 437.75432309 -195.67297707 442.3976986 -202.08032227 447.00610352 C-209.96991123 452.68556315 -217.79068749 458.45674297 -225.60888672 464.23388672 C-229.56991162 467.15956103 -233.53515717 470.07950306 -237.5 473 C-239.08335379 474.1666389 -240.66668712 475.33330558 -242.25 476.5 C-251.75 483.5 -261.25 490.5 -270.75 497.5 C-271.53383057 498.07758057 -272.31766113 498.65516113 -273.12524414 499.25024414 C-274.70768185 500.41620806 -276.29020131 501.58206104 -277.87280273 502.74780273 C-281.84551887 505.67431443 -285.81676994 508.60277534 -289.78515625 511.53515625 C-297.55599874 517.27423482 -305.34488696 522.98429619 -313.1875 528.625 C-318.83863096 532.68967678 -324.44355697 536.8068222 -330 541 C-336.30002511 545.75432309 -342.67297707 550.3976986 -349.08032227 555.00610352 C-356.96991123 560.68556315 -364.79068749 566.45674297 -372.60888672 572.23388672 C-375.78021152 574.5762763 -378.95429713 576.91490663 -382.12866211 579.25317383 C-383.70651125 580.41548317 -385.28414885 581.57807975 -386.86157227 582.7409668 C-390.89158097 585.71178255 -394.92408929 588.67910827 -398.9609375 591.640625 C-408.05945087 598.32059168 -417.09595916 605.06220157 -426 612 C-426.66 611.67 -427.32 611.34 -428 611 C-422.16230568 605.64350391 -416.20957728 600.4984133 -410.05078125 595.515625 C-406.47943501 592.57075051 -402.98785513 589.54283024 -399.5 586.5 C-394.3678393 582.02452477 -389.16814201 577.65992449 -383.875 573.375 C-380.36452361 570.47504125 -376.93167273 567.49241862 -373.5 564.5 C-369.21783896 560.76595557 -364.91668732 557.07541354 -360.5 553.5 C-355.46651459 549.42242873 -350.57666691 545.19494085 -345.69189453 540.94189453 C-340.03735121 536.0212235 -334.32527914 531.17218901 -328.59277344 526.34277344 C-325.89185198 524.06578569 -323.19619693 521.7825781 -320.5 519.5 C-317.26301005 516.76018685 -314.02546464 514.02104448 -310.78515625 511.28515625 C-309.71086274 510.37769267 -308.63664413 509.4701404 -307.5625 508.5625 C-307.03027832 508.11277832 -306.49805664 507.66305664 -305.94970703 507.19970703 C-302.50818184 504.28748821 -299.08346344 501.35643692 -295.66601562 498.41601562 C-291.00818074 494.40834744 -286.33696364 490.43158387 -281.5625 486.5625 C-276.51145932 482.46084729 -271.59871604 478.21408989 -266.69213867 473.94213867 C-261.03755469 469.02133926 -255.32536671 464.17226279 -249.59277344 459.34277344 C-246.89185198 457.06578569 -244.19619693 454.7825781 -241.5 452.5 C-238.26301005 449.76018685 -235.02546464 447.02104448 -231.78515625 444.28515625 C-230.71086274 443.37769267 -229.63664413 442.4701404 -228.5625 441.5625 C-228.03027832 441.11277832 -227.49805664 440.66305664 -226.94970703 440.19970703 C-223.50818184 437.28748821 -220.08346344 434.35643692 -216.66601562 431.41601562 C-212.00818074 427.40834744 -207.33696364 423.43158387 -202.5625 419.5625 C-197.45692535 415.41939009 -192.50199947 411.1176955 -187.54711914 406.79711914 C-183.91262149 403.63534162 -180.24479157 400.53149794 -176.5 397.5 C-171.46651459 393.42242873 -166.57666691 389.19494085 -161.69189453 384.94189453 C-156.03735121 380.0212235 -150.32527914 375.17218901 -144.59277344 370.34277344 C-141.89185198 368.06578569 -139.19619693 365.7825781 -136.5 363.5 C-133.26301005 360.76018685 -130.02546464 358.02104448 -126.78515625 355.28515625 C-125.71086274 354.37769267 -124.63664413 353.4701404 -123.5625 352.5625 C-123.03027832 352.11277832 -122.49805664 351.66305664 -121.94970703 351.19970703 C-118.50818184 348.28748821 -115.08346344 345.35643692 -111.66601562 342.41601562 C-107.00818074 338.40834744 -102.33696364 334.43158387 -97.5625 330.5625 C-92.51145932 326.46084729 -87.59871604 322.21408989 -82.69213867 317.94213867 C-77.03755469 313.02133926 -71.32536671 308.17226279 -65.59277344 303.34277344 C-62.35197526 300.61064744 -59.11822049 297.87018458 -55.88330078 295.13110352 C-53.12817043 292.79884783 -50.37084902 290.46927387 -47.609375 288.14453125 C-47.0520166 287.67450684 -46.4946582 287.20448242 -45.92041016 286.72021484 C-44.81726477 285.79055447 -43.71279598 284.86246192 -42.60693359 283.93603516 C-39.33824359 281.18434711 -36.22042979 278.31828154 -33.125 275.375 C-29.38911794 271.99064927 -27.00210649 271.10421055 -22 271 C-20.12356239 269.12356239 -20.82015013 266.50194299 -20.76953125 264.0078125 C-20.88168663 261.68325672 -20.88168663 261.68325672 -23 259 C-25.63082192 258.59728487 -25.63082192 258.59728487 -28.5625 258.75 C-29.55378906 258.76546875 -30.54507812 258.7809375 -31.56640625 258.796875 C-33.94708641 258.73180613 -33.94708641 258.73180613 -35 260 C-36.99900652 260.34716904 -39.00805336 260.63680636 -41.01953125 260.90234375 C-42.27056641 261.07056641 -43.52160156 261.23878906 -44.81054688 261.41210938 C-46.14449422 261.58752141 -47.47847884 261.7626502 -48.8125 261.9375 C-51.38173605 262.27825092 -53.95074987 262.62068201 -56.51953125 262.96484375 C-57.66526611 263.1155835 -58.81100098 263.26632324 -59.99145508 263.42163086 C-63.22810753 263.86980064 -66.44688704 264.40318741 -69.66870117 264.94750977 C-76.02670522 266.01834683 -82.39934697 266.95893959 -88.78125 267.875 C-90.54426453 268.12999268 -90.54426453 268.12999268 -92.34289551 268.39013672 C-97.31344537 269.10900903 -102.28442647 269.82487902 -107.25537109 270.54101562 C-110.90998299 271.06796189 -114.56436966 271.59645063 -118.21875 272.125 C-119.32222778 272.28339355 -120.42570557 272.44178711 -121.56262207 272.60498047 C-127.86741231 273.51704682 -134.15407736 274.50370438 -140.43409729 275.57348633 C-143.76175285 276.12662133 -147.09108799 276.57457645 -150.4375 277 C-156.14889598 277.72773191 -161.83368962 278.58192629 -167.52319336 279.46484375 C-174.33735616 280.51369178 -181.16056331 281.50262947 -187.98242188 282.5 C-194.446755 283.45162121 -200.89345553 284.47463595 -207.33618164 285.5625 C-210.69712171 286.11449382 -214.05870003 286.57045903 -217.4375 287 C-222.9401816 287.70113804 -228.4166523 288.52044868 -233.89819336 289.37109375 C-238.9720117 290.15346647 -244.05061428 290.90356889 -249.12890625 291.65625 C-250.1323558 291.80513672 -251.13580536 291.95402344 -252.16966248 292.10742188 C-256.35576038 292.72841337 -260.54191128 293.34904071 -264.72827148 293.96826172 C-279.72543655 296.18074202 -279.72543655 296.18074202 -294.68774414 298.61523438 C-297.93003753 299.15476076 -301.17681918 299.58547531 -304.4375 300 C-317.15149637 301.65244744 -317.15149637 301.65244744 -329.75 304 C-334.8992783 305.07171971 -340.09641297 305.65603347 -345.32128906 306.21484375 C-351.913819 306.93368489 -358.45029688 307.96736133 -365 309 C-367.07282257 309.32222045 -369.14573767 309.64384636 -371.21875 309.96484375 C-372.24274902 310.12364014 -373.26674805 310.28243652 -374.32177734 310.44604492 C-412.07609053 316.28407169 -412.07609053 316.28407169 -424 317 C-419.49019655 312.15266448 -414.3394715 308.28994685 -409.0625 304.3125 C-407.64807617 303.24032227 -407.64807617 303.24032227 -406.20507812 302.14648438 C-400.65921499 297.95770874 -395.0666474 293.85737907 -389.38012695 289.86181641 C-384.06739811 286.10446647 -378.91299125 282.14703142 -373.75 278.1875 C-367.23472432 273.19152322 -360.67976426 268.27392837 -354 263.5 C-347.43017246 258.80214536 -340.97410658 253.97404143 -334.5625 249.0625 C-324.03281977 240.99635308 -313.36757408 233.12688479 -302.66601562 225.29101562 C-292.52248909 217.8592088 -282.46822068 210.32596657 -272.48486328 202.68017578 C-267.18553534 198.6326111 -261.83252567 194.69239396 -256.37670898 190.85961914 C-251.06541608 187.10258642 -245.91192156 183.14621107 -240.75 179.1875 C-234.23472973 174.19152737 -227.67986262 169.27378549 -221 164.5 C-214.40519369 159.78616887 -207.93177862 154.93383891 -201.5 150 C-194.35435763 144.51855382 -187.13490259 139.17040274 -179.80859375 133.93359375 C-173.95402373 129.73110698 -168.21786853 125.3861961 -162.5 121 C-156.06821368 116.06615518 -149.59466151 111.21404065 -143 106.5 C-136.4302199 101.80207711 -129.97410895 96.97404325 -123.5625 92.0625 C-113.03281977 83.99635308 -102.36757408 76.12688479 -91.66601562 68.29101562 C-81.52248909 60.8592088 -71.46822068 53.32596657 -61.48486328 45.68017578 C-56.18553534 41.6326111 -50.83252567 37.69239396 -45.37670898 33.85961914 C-39.14458866 29.4512236 -33.11953182 24.77221629 -27.06347656 20.12670898 C-18.97050174 13.93645046 -10.73522811 7.95809637 -2.43261719 2.05297852 C-1.01961495 1.06994313 -1.01961495 1.06994313 0 0 Z " fill="#00AEFF" transform="translate(807,218)"/>
<path d="M0 0 C4.1056482 0.92377084 5.9225823 3.1006324 8.22265625 6.48828125 C8.9375 8.375 8.9375 8.375 8.92578125 10.29296875 C7.41680599 13.47195616 4.77492478 15.2544538 2.0625 17.375 C-4.12864997 22.41052542 -9.44778328 27.86941547 -14.7109375 33.85009766 C-17.00035651 36.43313796 -19.34766808 38.96270532 -21.6875 41.5 C-24.97935927 45.08545597 -28.250647 48.68844684 -31.5 52.3125 C-35.95893915 57.28012383 -40.48688331 62.18183252 -45.01953125 67.08203125 C-49.26040733 71.6676721 -53.47704849 76.27544917 -57.69482422 80.88232422 C-59.08829152 82.40314876 -60.48337751 83.92247324 -61.87890625 85.44140625 C-66.10773476 90.04573948 -70.32653086 94.65776595 -74.5 99.3125 C-78.95893915 104.28012383 -83.48688331 109.18183252 -88.01953125 114.08203125 C-90.89644762 117.19282841 -93.76299617 120.31298345 -96.625 123.4375 C-97.29958252 124.17395752 -97.29958252 124.17395752 -97.98779297 124.92529297 C-98.89312602 125.91384515 -99.79839963 126.90245177 -100.70361328 127.89111328 C-102.98892496 130.38664407 -105.2757958 132.88074527 -107.5625 135.375 C-108.47917404 136.37499325 -109.3958407 137.37499324 -110.3125 138.375 C-115.8125 144.375 -115.8125 144.375 -117.18798828 145.87548828 C-118.10308633 146.87380661 -119.01812555 147.87217886 -119.93310547 148.87060547 C-122.24828852 151.3967842 -124.5645401 153.92196832 -126.8828125 156.4453125 C-131.11016751 161.04849765 -135.32776083 165.65913776 -139.5 170.3125 C-143.95893915 175.28012383 -148.48688331 180.18183252 -153.01953125 185.08203125 C-157.26040733 189.6676721 -161.47704849 194.27544917 -165.69482422 198.88232422 C-167.08829152 200.40314876 -168.48337751 201.92247324 -169.87890625 203.44140625 C-174.10773476 208.04573948 -178.32653086 212.65776595 -182.5 217.3125 C-186.95893915 222.28012383 -191.48688331 227.18183252 -196.01953125 232.08203125 C-200.26181081 236.66918969 -204.47997695 241.27838261 -208.69921875 245.88671875 C-210.0798982 247.39399345 -211.46165675 248.90027165 -212.84375 250.40625 C-218.93579136 257.04523172 -225.00726473 263.7024197 -231.0625 270.375 C-207.30941918 267.74730552 -207.30941918 267.74730552 -183.75 263.8125 C-176.94693646 262.47419242 -170.1832454 261.61653827 -163.29296875 260.90234375 C-160.24307822 260.55507541 -157.24753399 260.06468359 -154.23046875 259.5 C-146.75547983 258.10218545 -139.24001588 256.97462056 -131.72363281 255.82543945 C-129.22690811 255.44352806 -126.73061842 255.05887121 -124.234375 254.67382812 C-116.00257397 253.40834479 -107.76676956 252.18403687 -99.51953125 251.0234375 C-90.10711577 249.69472373 -80.71129496 248.2627236 -71.31640625 246.81640625 C-70.1891853 246.64304465 -70.1891853 246.64304465 -69.0391922 246.4661808 C-62.00364811 245.3841017 -54.96836134 244.30036582 -47.93383789 243.21166992 C-43.29100946 242.49343116 -38.64771166 241.77830123 -34.00390625 241.06640625 C-32.87016225 240.89258108 -32.87016225 240.89258108 -31.71351433 240.71524429 C-19.69019084 238.87725003 -7.65218232 237.19493484 4.41184998 235.64588928 C11.59312397 234.71941779 18.65261753 233.56648628 25.75390625 232.15234375 C38.71678681 229.65586112 51.8776537 228.03404016 64.9609375 226.30078125 C65.62848053 226.21234451 66.29602356 226.12390778 66.98379517 226.03279114 C70.21327795 225.60624874 73.44335668 225.1849915 76.67431641 224.76977539 C82.73164542 223.98190076 88.72937955 223.07907719 94.73095703 221.94628906 C98.94462496 221.19556705 103.17134714 220.54720275 107.40234375 219.90234375 C108.24954987 219.77317566 109.09675598 219.64400757 109.96963501 219.51092529 C113.50526516 218.9733858 117.04129512 218.43850852 120.57739258 217.90405273 C123.18595075 217.50921955 125.79415652 217.11211876 128.40234375 216.71484375 C129.2002684 216.59503647 129.99819305 216.47522919 130.82029724 216.35179138 C134.96783557 215.75189237 134.96783557 215.75189237 139.01075745 214.68702698 C139.96449501 214.53257362 139.96449501 214.53257362 140.9375 214.375 C143.625 216.75 143.625 216.75 145.9375 219.375 C146.2675 219.705 146.5975 220.035 146.9375 220.375 C147.3125 223.1875 147.3125 223.1875 146.9375 226.375 C143.47994672 229.48553607 139.60911009 232.06950179 135.8125 234.75 C127.59526172 240.58208691 119.49554362 246.57057558 111.39306641 252.56054688 C107.41100788 255.50294685 103.42406062 258.4387044 99.4375 261.375 C97.85414211 262.54163334 96.2708088 263.70830004 94.6875 264.875 C91.52083333 267.20833333 88.35416667 269.54166667 85.1875 271.875 C84.40366943 272.45258057 83.61983887 273.03016113 82.81225586 273.62524414 C81.22981815 274.79120806 79.64729869 275.95706104 78.06469727 277.12280273 C74.09198113 280.04931443 70.12073006 282.97777534 66.15234375 285.91015625 C57.70409743 292.14971072 49.22743416 298.3456422 40.70458984 304.48291016 C32.86872514 310.13218083 25.09757146 315.86812892 17.32861328 321.60888672 C13.36758838 324.53456103 9.40234283 327.45450306 5.4375 330.375 C3.85414621 331.5416389 2.27081288 332.70830558 0.6875 333.875 C-13.5625 344.375 -13.5625 344.375 -27.8125 354.875 C-28.59633057 355.45258057 -29.38016113 356.03016113 -30.18774414 356.62524414 C-31.77018185 357.79120806 -33.35270131 358.95706104 -34.93530273 360.12280273 C-38.90801887 363.04931443 -42.87926994 365.97777534 -46.84765625 368.91015625 C-54.61849874 374.64923482 -62.40738696 380.35929619 -70.25 386 C-75.90113096 390.06467678 -81.50605697 394.1818222 -87.0625 398.375 C-93.36252511 403.12932309 -99.73547707 407.7726986 -106.14282227 412.38110352 C-114.03241123 418.06056315 -121.85318749 423.83174297 -129.67138672 429.60888672 C-133.63241162 432.53456103 -137.59765717 435.45450306 -141.5625 438.375 C-143.14585379 439.5416389 -144.72918712 440.70830558 -146.3125 441.875 C-155.8125 448.875 -165.3125 455.875 -174.8125 462.875 C-175.59633057 463.45258057 -176.38016113 464.03016113 -177.18774414 464.62524414 C-178.77018185 465.79120806 -180.35270131 466.95706104 -181.93530273 468.12280273 C-185.90801887 471.04931443 -189.87926994 473.97777534 -193.84765625 476.91015625 C-201.61849874 482.64923482 -209.40738696 488.35929619 -217.25 494 C-222.90113096 498.06467678 -228.50605697 502.1818222 -234.0625 506.375 C-240.36252511 511.12932309 -246.73547707 515.7726986 -253.14282227 520.38110352 C-261.03241123 526.06056315 -268.85318749 531.83174297 -276.67138672 537.60888672 C-280.63241162 540.53456103 -284.59765717 543.45450306 -288.5625 546.375 C-290.14585379 547.5416389 -291.72918712 548.70830558 -293.3125 549.875 C-302.8125 556.875 -312.3125 563.875 -321.8125 570.875 C-322.59633057 571.45258057 -323.38016113 572.03016113 -324.18774414 572.62524414 C-325.77018185 573.79120806 -327.35270131 574.95706104 -328.93530273 576.12280273 C-332.90801887 579.04931443 -336.87926994 581.97777534 -340.84765625 584.91015625 C-349.29590257 591.14971072 -357.77256584 597.3456422 -366.29541016 603.48291016 C-374.13127486 609.13218083 -381.90242854 614.86812892 -389.67138672 620.60888672 C-393.63241162 623.53456103 -397.59765717 626.45450306 -401.5625 629.375 C-403.14585379 630.5416389 -404.72918712 631.70830558 -406.3125 632.875 C-422.14583333 644.54166667 -437.97916667 656.20833333 -453.8125 667.875 C-454.59633057 668.45258057 -455.38016113 669.03016113 -456.18774414 669.62524414 C-457.77018185 670.79120806 -459.35270131 671.95706104 -460.93530273 673.12280273 C-464.90801887 676.04931443 -468.87926994 678.97777534 -472.84765625 681.91015625 C-481.29590257 688.14971072 -489.77256584 694.3456422 -498.29541016 700.48291016 C-506.13127486 706.13218083 -513.90242854 711.86812892 -521.67138672 717.60888672 C-525.63241162 720.53456103 -529.59765717 723.45450306 -533.5625 726.375 C-535.14585379 727.5416389 -536.72918712 728.70830558 -538.3125 729.875 C-547.8125 736.875 -557.3125 743.875 -566.8125 750.875 C-567.59633057 751.45258057 -568.38016113 752.03016113 -569.18774414 752.62524414 C-570.77018185 753.79120806 -572.35270131 754.95706104 -573.93530273 756.12280273 C-577.90801887 759.04931443 -581.87926994 761.97777534 -585.84765625 764.91015625 C-593.61849874 770.64923482 -601.40738696 776.35929619 -609.25 782 C-614.90113349 786.0646786 -620.50599249 790.18190438 -626.0625 794.375 C-631.8916615 798.77273367 -637.76916141 803.09796249 -643.6875 807.375 C-644.43386719 807.91511719 -645.18023438 808.45523438 -645.94921875 809.01171875 C-647.98061967 810.47535971 -650.01878971 811.92860978 -652.0625 813.375 C-652.64402832 813.78991699 -653.22555664 814.20483398 -653.82470703 814.63232422 C-657.75020119 817.36012863 -657.75020119 817.36012863 -660.6875 817.5 C-664.17831787 815.84645469 -665.3566587 813.7866826 -667.0625 810.375 C-666.96748957 806.76460381 -666.17562922 805.49985834 -663.7265625 802.796875 C-662.72448825 801.89395125 -661.71069352 801.00391929 -660.6875 800.125 C-659.87502808 799.40449463 -659.87502808 799.40449463 -659.04614258 798.66943359 C-654.80350032 794.93571053 -650.4355964 791.35817839 -646.03515625 787.8125 C-642.52931395 784.93780145 -639.10582653 781.97774222 -635.6875 779 C-629.3898148 773.51627967 -623.04151869 768.09793943 -616.65527344 762.71777344 C-613.95435198 760.44078569 -611.25869693 758.1575781 -608.5625 755.875 C-605.32551005 753.13518685 -602.08796464 750.39604448 -598.84765625 747.66015625 C-597.77336274 746.75269267 -596.69914413 745.8451404 -595.625 744.9375 C-595.09277832 744.48777832 -594.56055664 744.03805664 -594.01220703 743.57470703 C-590.57068184 740.66248821 -587.14596344 737.73143692 -583.72851562 734.79101562 C-579.07068074 730.78334744 -574.39946364 726.80658387 -569.625 722.9375 C-564.51942535 718.79439009 -559.56449947 714.4926955 -554.60961914 710.17211914 C-550.97512149 707.01034162 -547.30729157 703.90649794 -543.5625 700.875 C-538.52901459 696.79742873 -533.63916691 692.56994085 -528.75439453 688.31689453 C-523.09830629 683.39487908 -517.38481652 678.54427867 -511.65087891 673.71337891 C-508.97341047 671.45732573 -506.29877043 669.19793394 -503.625 666.9375 C-503.09261719 666.48761719 -502.56023437 666.03773438 -502.01171875 665.57421875 C-498.57028995 662.66224054 -495.14578959 659.73128733 -491.72851562 656.79101562 C-487.07068074 652.78334744 -482.39946364 648.80658387 -477.625 644.9375 C-472.51942535 640.79439009 -467.56449947 636.4926955 -462.60961914 632.17211914 C-458.97512149 629.01034162 -455.30729157 625.90649794 -451.5625 622.875 C-446.52901459 618.79742873 -441.63916691 614.56994085 -436.75439453 610.31689453 C-431.09830629 605.39487908 -425.38481652 600.54427867 -419.65087891 595.71337891 C-416.97341047 593.45732573 -414.29877043 591.19793394 -411.625 588.9375 C-411.09261719 588.48761719 -410.56023437 588.03773438 -410.01171875 587.57421875 C-406.57028995 584.66224054 -403.14578959 581.73128733 -399.72851562 578.79101562 C-395.07068074 574.78334744 -390.39946364 570.80658387 -385.625 566.9375 C-380.51942535 562.79439009 -375.56449947 558.4926955 -370.60961914 554.17211914 C-366.97512149 551.01034162 -363.30729157 547.90649794 -359.5625 544.875 C-354.52901459 540.79742873 -349.63916691 536.56994085 -344.75439453 532.31689453 C-339.09830629 527.39487908 -333.38481652 522.54427867 -327.65087891 517.71337891 C-324.97341047 515.45732573 -322.29877043 513.19793394 -319.625 510.9375 C-319.09261719 510.48761719 -318.56023437 510.03773438 -318.01171875 509.57421875 C-314.57028995 506.66224054 -311.14578959 503.73128733 -307.72851562 500.79101562 C-303.07068074 496.78334744 -298.39946364 492.80658387 -293.625 488.9375 C-288.51942535 484.79439009 -283.56449947 480.4926955 -278.60961914 476.17211914 C-274.97512149 473.01034162 -271.30729157 469.90649794 -267.5625 466.875 C-262.52901459 462.79742873 -257.63916691 458.56994085 -252.75439453 454.31689453 C-247.09830629 449.39487908 -241.38481652 444.54427867 -235.65087891 439.71337891 C-232.97341047 437.45732573 -230.29877043 435.19793394 -227.625 432.9375 C-227.09261719 432.48761719 -226.56023437 432.03773438 -226.01171875 431.57421875 C-222.57028995 428.66224054 -219.14578959 425.73128733 -215.72851562 422.79101562 C-211.07068074 418.78334744 -206.39946364 414.80658387 -201.625 410.9375 C-196.51942535 406.79439009 -191.56449947 402.4926955 -186.60961914 398.17211914 C-182.97512149 395.01034162 -179.30729157 391.90649794 -175.5625 388.875 C-170.52901459 384.79742873 -165.63916691 380.56994085 -160.75439453 376.31689453 C-155.11312281 371.40777265 -149.4142312 366.57057272 -143.69482422 361.75292969 C-141.96129688 360.28956919 -140.23217406 358.82113008 -138.50390625 357.3515625 C-137.91754395 356.85350098 -137.33118164 356.35543945 -136.72705078 355.84228516 C-135.60883757 354.89226234 -134.4912811 353.94146575 -133.37451172 352.98974609 C-130.66531048 350.69084705 -127.91507593 348.49203002 -125.0625 346.375 C-132.90084514 346.91546643 -140.55248482 347.84611061 -148.28515625 349.22265625 C-159.6142798 351.17300084 -170.96807275 352.82661807 -182.35723877 354.38265991 C-187.7979348 355.12679193 -193.23685292 355.88369695 -198.67578125 356.640625 C-199.7458844 356.78944626 -200.81598755 356.93826752 -201.91851807 357.09159851 C-211.01653069 358.36063893 -220.10580087 359.68164883 -229.1875 361.0625 C-229.85068237 361.16326843 -230.51386475 361.26403687 -231.19714355 361.36785889 C-240.51844039 362.78926891 -249.81467521 364.33654719 -259.10839844 365.92651367 C-268.30360375 367.47074068 -277.53812282 368.67265593 -286.78320312 369.87524414 C-298.17357739 371.36451957 -309.51636035 373.10268835 -320.86474609 374.87939453 C-326.26026323 375.71562142 -331.66114095 376.51501601 -337.0625 377.3125 C-338.71113037 377.55613281 -338.71113037 377.55613281 -340.39306641 377.8046875 C-346.73149062 378.73982028 -353.07071854 379.66942631 -359.41015625 380.59765625 C-388.43602593 384.8455694 -388.43602593 384.8455694 -417.4140625 389.40625 C-427.34535495 391.02403783 -437.26396411 392.57124834 -447.25 393.8125 C-456.12569607 394.91887588 -464.93277167 396.3117072 -473.75 397.8125 C-484.02885338 399.55520579 -494.31113494 401.22898988 -504.625 402.75 C-506.39073364 403.01961548 -506.39073364 403.01961548 -508.19213867 403.29467773 C-509.28502197 403.45266846 -510.37790527 403.61065918 -511.50390625 403.7734375 C-512.45982666 403.91442871 -513.41574707 404.05541992 -514.40063477 404.20068359 C-517.20500112 404.38433191 -519.36747652 404.15903834 -522.0625 403.375 C-524.0625 401.375 -524.0625 401.375 -524.2578125 398.9921875 C-524.23460937 398.08726562 -524.21140625 397.18234375 -524.1875 396.25 C-524.16945313 395.33992188 -524.15140625 394.42984375 -524.1328125 393.4921875 C-524.10960937 392.79351563 -524.08640625 392.09484375 -524.0625 391.375 C-522.7425 391.045 -521.4225 390.715 -520.0625 390.375 C-519.92593994 389.476604 -519.92593994 389.476604 -519.78662109 388.56005859 C-518.87553743 385.81083446 -517.81968285 385.08079497 -515.4765625 383.4140625 C-514.34275146 382.59446045 -514.34275146 382.59446045 -513.18603516 381.75830078 C-512.36151855 381.17806152 -511.53700195 380.59782227 -510.6875 380 C-508.93734624 378.73979685 -507.18735047 377.47937425 -505.4375 376.21875 C-504.5403125 375.57808594 -503.643125 374.93742187 -502.71875 374.27734375 C-498.68242658 371.38662389 -494.68352374 368.44605996 -490.6875 365.5 C-489.91108154 364.92918701 -489.13466309 364.35837402 -488.3347168 363.77026367 C-482.33880664 359.35018989 -476.41327256 354.84229808 -470.5 350.3125 C-463.37421312 344.85386853 -456.17294913 339.5280859 -448.87084961 334.30834961 C-443.01628538 330.10604912 -437.28027719 325.76112602 -431.5625 321.375 C-424.41685763 315.89355382 -417.19740259 310.54540274 -409.87109375 305.30859375 C-404.01652373 301.10610698 -398.28036853 296.7611961 -392.5625 292.375 C-386.13071368 287.44115518 -379.65716151 282.58904065 -373.0625 277.875 C-366.4927199 273.17707711 -360.03660895 268.34904325 -353.625 263.4375 C-343.09531977 255.37135308 -332.43007408 247.50188479 -321.72851562 239.66601562 C-311.58498909 232.2342088 -301.53072068 224.70096657 -291.54736328 217.05517578 C-286.24803534 213.0076111 -280.89502567 209.06739396 -275.43920898 205.23461914 C-270.12791608 201.47758642 -264.97442156 197.52121107 -259.8125 193.5625 C-253.29722973 188.56652737 -246.74236262 183.64878549 -240.0625 178.875 C-233.46769369 174.16116887 -226.99427862 169.30883891 -220.5625 164.375 C-213.41685763 158.89355382 -206.19740259 153.54540274 -198.87109375 148.30859375 C-193.01652373 144.10610698 -187.28036853 139.7611961 -181.5625 135.375 C-175.13071368 130.44115518 -168.65716151 125.58904065 -162.0625 120.875 C-155.4927199 116.17707711 -149.03660895 111.34904325 -142.625 106.4375 C-132.09531977 98.37135308 -121.43007408 90.50188479 -110.72851562 82.66601562 C-100.58498909 75.2342088 -90.53072068 67.70096657 -80.54736328 60.05517578 C-75.24803534 56.0076111 -69.89502567 52.06739396 -64.43920898 48.23461914 C-58.20028092 43.82140803 -52.16864367 39.13720868 -46.10620117 34.48632812 C-40.26367358 30.01699235 -34.35682503 25.65577516 -28.375 21.375 C-16.67126999 13.40618815 -16.67126999 13.40618815 -6.9375 3.3125 C-4.76267642 0.63247661 -3.4897617 -0.13647113 0 0 Z M-68.0625 68.375 C-68.78050781 68.93445313 -69.49851562 69.49390625 -70.23828125 70.0703125 C-77.59988133 75.77257309 -85.05118967 81.33848106 -92.55786133 86.84814453 C-98.42009251 91.15454753 -104.24945749 95.50246773 -110.0625 99.875 C-116.51321965 104.72710108 -122.99073175 109.53926275 -129.5 114.3125 C-136.35263273 119.33867091 -143.12842945 124.45745269 -149.875 129.625 C-156.07048593 134.3699666 -162.30057167 139.02968984 -168.68579102 143.51538086 C-173.99708392 147.27241358 -179.15057844 151.22878893 -184.3125 155.1875 C-190.82777027 160.18347263 -197.38263738 165.10121451 -204.0625 169.875 C-210.65730631 174.58883113 -217.13072138 179.44116109 -223.5625 184.375 C-230.70814237 189.85644618 -237.92759741 195.20459726 -245.25390625 200.44140625 C-251.10847627 204.64389302 -256.84463147 208.9888039 -262.5625 213.375 C-268.99428632 218.30884482 -275.46783849 223.16095935 -282.0625 227.875 C-288.6322801 232.57292289 -295.08839105 237.40095675 -301.5 242.3125 C-312.02968023 250.37864692 -322.69492592 258.24811521 -333.39648438 266.08398438 C-343.54001091 273.5157912 -353.59427932 281.04903343 -363.57763672 288.69482422 C-368.87696466 292.7423889 -374.22997433 296.68260604 -379.68579102 300.51538086 C-384.99708392 304.27241358 -390.15057844 308.22878893 -395.3125 312.1875 C-401.82777027 317.18347263 -408.38263738 322.10121451 -415.0625 326.875 C-421.65730631 331.58883113 -428.13072138 336.44116109 -434.5625 341.375 C-440.99428431 346.30884328 -447.46779109 351.16102616 -454.0625 355.875 C-463.43818008 362.57809425 -472.58618789 369.57031289 -481.72363281 376.59326172 C-484.67569844 378.84213175 -487.66243904 381.04247707 -490.65966797 383.23071289 C-491.35406982 383.79713501 -491.35406982 383.79713501 -492.0625 384.375 C-492.0625 384.705 -492.0625 385.035 -492.0625 385.375 C-483.11994573 384.72685377 -474.2591606 383.70011813 -465.375 382.5 C-464.71774933 382.41196106 -464.06049866 382.32392212 -463.3833313 382.23321533 C-453.2208673 380.86896259 -443.14408413 379.23947901 -433.0625 377.375 C-425.85374674 376.15793776 -418.63767086 375.19367514 -411.375 374.375 C-406.00892869 373.76951529 -400.74206982 373.00276496 -395.4609375 371.87109375 C-385.36114827 369.7820494 -375.04981098 368.71731021 -364.81591797 367.51586914 C-360.3590961 366.97873131 -355.95557863 366.39856308 -351.5625 365.46875 C-343.19612638 363.71600181 -334.7031725 362.62139478 -326.25 361.375 C-323.60546522 360.98271483 -320.96103567 360.58972635 -318.31661987 360.19664001 C-316.60032573 359.94170624 -314.88395664 359.68727652 -313.16751099 359.43336487 C-308.45333979 358.73518854 -303.74311916 358.01648622 -299.03515625 357.27734375 C-293.14174231 356.364724 -287.23428479 355.63794203 -281.3125 354.9375 C-273.66348221 354.00970083 -266.09143983 352.92723051 -258.52026367 351.50244141 C-251.4697307 350.20386004 -244.36918564 349.3263781 -237.25366211 348.46484375 C-231.91679562 347.80517313 -226.6947862 346.93009336 -221.43139648 345.83227539 C-217.151085 345.00603367 -212.82942985 344.60640683 -208.49609375 344.1640625 C-204.76472209 343.75953997 -201.12291592 343.21243363 -197.44897461 342.43896484 C-192.16699735 341.36729793 -186.86968731 340.54951549 -181.53515625 339.7890625 C-180.06668999 339.57631432 -180.06668999 339.57631432 -178.56855774 339.35926819 C-175.4210508 338.90374792 -172.27303275 338.45187059 -169.125 338 C-166.95324399 337.6862566 -164.7815319 337.37220903 -162.60986328 337.05786133 C-159.38631465 336.59127596 -156.16274415 336.12485107 -152.93902588 335.65943909 C-143.71175937 334.32705948 -134.48897754 332.96642227 -125.26831055 331.58911133 C-120.97300854 330.94873633 -116.67768973 330.31548851 -112.375 329.7265625 C-111.075625 329.54867188 -109.77625 329.37078125 -108.4375 329.1875 C-106.87128906 328.98060547 -106.87128906 328.98060547 -105.2734375 328.76953125 C-103.09514059 328.59827159 -103.09514059 328.59827159 -102.0625 327.375 C-100.25437276 327.22408087 -98.43919383 327.15330992 -96.625 327.125 C-95.63628906 327.09921875 -94.64757812 327.0734375 -93.62890625 327.046875 C-92.35853516 327.20929688 -92.35853516 327.20929688 -91.0625 327.375 C-88.36788014 331.41692978 -88.83049111 333.5801496 -89.0625 338.375 C-90.0625 339.375 -90.0625 339.375 -93.234375 339.59375 C-97.86661534 340.53910517 -100.11619403 342.61567107 -103.3125 345.875 C-104.45203723 346.98163291 -105.59399694 348.0857764 -106.73828125 349.1875 C-107.2998291 349.73277344 -107.86137695 350.27804687 -108.43994141 350.83984375 C-110.6972123 352.97552226 -113.0783625 354.92910517 -115.5 356.875 C-119.71187767 360.26161862 -123.84248208 363.72412397 -127.9375 367.25 C-132.99194256 371.60027604 -138.06636673 375.92493758 -143.16308594 380.22558594 C-147.19071886 383.62794656 -151.19124418 387.06088046 -155.1875 390.5 C-159.2487481 393.99319482 -163.33768779 397.43948551 -167.5 400.8125 C-172.55104068 404.91415271 -177.46378396 409.16091011 -182.37036133 413.43286133 C-188.02494531 418.35366074 -193.73713329 423.20273721 -199.46972656 428.03222656 C-202.17064812 430.30921439 -204.86627244 432.59245794 -207.5625 434.875 C-208.64580865 435.79169584 -209.72914196 436.70836253 -210.8125 437.625 C-211.34875 438.07875 -211.885 438.5325 -212.4375 439 C-217.3125 443.125 -217.3125 443.125 -218.93725586 444.49975586 C-220.02145238 445.41717797 -221.10559945 446.33465852 -222.18969727 447.25219727 C-224.88442311 449.53278544 -227.57997812 451.81237815 -230.27734375 454.08984375 C-231.35163726 454.99730733 -232.42585587 455.9048596 -233.5 456.8125 C-234.03222168 457.26222168 -234.56444336 457.71194336 -235.11279297 458.17529297 C-238.55431816 461.08751179 -241.97903656 464.01856308 -245.39648438 466.95898438 C-250.05431926 470.96665256 -254.72553636 474.94341613 -259.5 478.8125 C-264.60557465 482.95560991 -269.56050053 487.2573045 -274.51538086 491.57788086 C-278.14987851 494.73965838 -281.81770843 497.84350206 -285.5625 500.875 C-290.59598541 504.95257127 -295.48583309 509.18005915 -300.37060547 513.43310547 C-306.02669371 518.35512092 -311.74018348 523.20572133 -317.47412109 528.03662109 C-320.15158953 530.29267427 -322.82622957 532.55206606 -325.5 534.8125 C-326.29857422 535.48732422 -326.29857422 535.48732422 -327.11328125 536.17578125 C-330.55471005 539.08775946 -333.97921041 542.01871267 -337.39648438 544.95898438 C-342.05431926 548.96665256 -346.72553636 552.94341613 -351.5 556.8125 C-356.55104068 560.91415271 -361.46378396 565.16091011 -366.37036133 569.43286133 C-372.02494531 574.35366074 -377.73713329 579.20273721 -383.46972656 584.03222656 C-386.17064802 586.30921431 -388.86630307 588.5924219 -391.5625 590.875 C-394.79948995 593.61481315 -398.03703536 596.35395552 -401.27734375 599.08984375 C-402.35163726 599.99730733 -403.42585587 600.9048596 -404.5 601.8125 C-405.03222168 602.26222168 -405.56444336 602.71194336 -406.11279297 603.17529297 C-409.55431816 606.08751179 -412.97903656 609.01856308 -416.39648438 611.95898438 C-421.05431926 615.96665256 -425.72553636 619.94341613 -430.5 623.8125 C-435.60557465 627.95560991 -440.56050053 632.2573045 -445.51538086 636.57788086 C-449.14987851 639.73965838 -452.81770843 642.84350206 -456.5625 645.875 C-461.59073229 649.94831577 -466.4758091 654.17101009 -471.35522461 658.41992188 C-479.50225979 665.51026342 -487.76048668 672.46693543 -496.0625 679.375 C-491.95434755 679.375 -490.69033356 677.75036055 -487.5 675.1875 C-482.23971606 671.02792634 -476.88863982 667.03103754 -471.4375 663.125 C-462.72394724 656.86693344 -454.08151243 650.51657292 -445.45361328 644.14111328 C-441.49258838 641.21543897 -437.52734283 638.29549694 -433.5625 635.375 C-431.97914621 634.2083611 -430.39581288 633.04169442 -428.8125 631.875 C-425.64583333 629.54166667 -422.47916667 627.20833333 -419.3125 624.875 C-418.52866943 624.29741943 -417.74483887 623.71983887 -416.93725586 623.12475586 C-415.35481815 621.95879194 -413.77229869 620.79293896 -412.18969727 619.62719727 C-408.21698113 616.70068557 -404.24573006 613.77222466 -400.27734375 610.83984375 C-391.82909743 604.60028928 -383.35243416 598.4043578 -374.82958984 592.26708984 C-366.99372514 586.61781917 -359.22257146 580.88187108 -351.45361328 575.14111328 C-347.49258838 572.21543897 -343.52734283 569.29549694 -339.5625 566.375 C-337.97914621 565.2083611 -336.39581288 564.04169442 -334.8125 562.875 C-325.3125 555.875 -315.8125 548.875 -306.3125 541.875 C-305.52866943 541.29741943 -304.74483887 540.71983887 -303.93725586 540.12475586 C-302.35481815 538.95879194 -300.77229869 537.79293896 -299.18969727 536.62719727 C-295.21698113 533.70068557 -291.24573006 530.77222466 -287.27734375 527.83984375 C-279.50650126 522.10076518 -271.71761304 516.39070381 -263.875 510.75 C-258.22386904 506.68532322 -252.61894303 502.5681778 -247.0625 498.375 C-240.76247489 493.62067691 -234.38952293 488.9773014 -227.98217773 484.36889648 C-220.09258877 478.68943685 -212.27181251 472.91825703 -204.45361328 467.14111328 C-200.49258838 464.21543897 -196.52734283 461.29549694 -192.5625 458.375 C-190.97914621 457.2083611 -189.39581288 456.04169442 -187.8125 454.875 C-178.3125 447.875 -168.8125 440.875 -159.3125 433.875 C-158.52866943 433.29741943 -157.74483887 432.71983887 -156.93725586 432.12475586 C-155.35481815 430.95879194 -153.77229869 429.79293896 -152.18969727 428.62719727 C-148.21698113 425.70068557 -144.24573006 422.77222466 -140.27734375 419.83984375 C-132.50650126 414.10076518 -124.71761304 408.39070381 -116.875 402.75 C-111.22386904 398.68532322 -105.61894303 394.5681778 -100.0625 390.375 C-93.76247489 385.62067691 -87.38952293 380.9773014 -80.98217773 376.36889648 C-73.09258877 370.68943685 -65.27181251 364.91825703 -57.45361328 359.14111328 C-53.49258838 356.21543897 -49.52734283 353.29549694 -45.5625 350.375 C-43.97914621 349.2083611 -42.39581288 348.04169442 -40.8125 346.875 C-31.3125 339.875 -21.8125 332.875 -12.3125 325.875 C-11.52866943 325.29741943 -10.74483887 324.71983887 -9.93725586 324.12475586 C-8.35481815 322.95879194 -6.77229869 321.79293896 -5.18969727 320.62719727 C-1.21698113 317.70068557 2.75426994 314.77222466 6.72265625 311.83984375 C14.49349874 306.10076518 22.28238696 300.39070381 30.125 294.75 C35.77613096 290.68532322 41.38105697 286.5681778 46.9375 282.375 C53.23752511 277.62067691 59.61047707 272.9773014 66.01782227 268.36889648 C73.0778506 263.28661069 80.08314082 258.13224489 87.078125 252.9609375 C90.49697043 250.43390392 93.92530677 247.92036854 97.359375 245.4140625 C98.24052979 244.76945068 99.12168457 244.12483887 100.02954102 243.46069336 C101.73391766 242.21419459 103.44008214 240.970136 105.14819336 239.72875977 C105.90753174 239.17244873 106.66687012 238.6161377 107.44921875 238.04296875 C108.12428467 237.55078857 108.79935059 237.0586084 109.49487305 236.55151367 C109.97093994 236.16326416 110.44700684 235.77501465 110.9375 235.375 C110.9375 235.045 110.9375 234.715 110.9375 234.375 C101.59533936 234.73992815 92.55438025 236.20597917 83.35693359 237.79199219 C76.60555152 238.94925325 69.85359668 239.98102622 63.0625 240.875 C55.25487843 241.90676398 47.46909566 243.03722178 39.6875 244.25 C29.44505393 245.84598435 19.19447649 247.37605567 8.9375 248.875 C-0.79714744 250.29872619 -10.52835823 251.73946602 -20.25 253.25 C-32.67921946 255.18091007 -45.12066845 257.02743593 -57.5625 258.875 C-71.15349247 260.89333562 -84.74227203 262.92079779 -98.31958008 265.02954102 C-105.62432796 266.16181037 -112.93600824 267.24174725 -120.25 268.3125 C-130.14076296 269.76161681 -140.00998658 271.32453232 -149.875 272.9375 C-159.58700245 274.52494723 -169.29991108 276.03537058 -179.05981445 277.29907227 C-185.70151249 278.1624721 -192.32154696 279.15407424 -198.9438324 280.15354919 C-208.89542995 281.65488084 -218.85388171 283.10860242 -228.8125 284.5625 C-230.6966196 284.83785633 -232.5807342 285.11324682 -234.46484375 285.38867188 C-238.99733875 286.05117256 -243.52989975 286.71321981 -248.0625 287.375 C-248.0625 288.035 -248.0625 288.695 -248.0625 289.375 C-252.13840913 289.1398514 -254.43886511 288.89216064 -257.625 286.25 C-259.0625 283.375 -259.0625 283.375 -258.8125 280 C-257.36264062 276.12821643 -254.83093064 274.19607479 -251.67578125 271.65234375 C-248.207093 268.62955564 -245.12338717 265.31135529 -242 261.9375 C-241.42282227 261.31681641 -240.84564453 260.69613281 -240.25097656 260.05664062 C-237.31363396 256.87798659 -234.42846348 253.66165194 -231.58984375 250.39453125 C-228.05436652 246.33407579 -224.38715763 242.41060091 -220.6875 238.5 C-215.82630822 233.33903572 -211.01503542 228.14453779 -206.29296875 222.85546875 C-203.61690969 219.87946611 -200.90506377 216.93806974 -198.1875 214 C-197.6817041 213.4529541 -197.1759082 212.9059082 -196.65478516 212.34228516 C-195.63169963 211.23581539 -194.60858761 210.1293701 -193.58544922 209.02294922 C-185.56676325 200.38336964 -185.56676325 200.38336964 -177.75 191.5625 C-173.77679568 186.97949933 -169.61011459 182.57801468 -165.46435547 178.15185547 C-159.95252362 172.26624112 -154.50138964 166.32805351 -149.0625 160.375 C-147.6898883 158.87639741 -146.3166036 157.37841437 -144.94311523 155.88061523 C-144.02705682 154.88161749 -143.11120195 153.88243304 -142.19555664 152.88305664 C-139.85714815 150.33088898 -137.51643726 147.78089148 -135.171875 145.234375 C-134.45354492 144.45320313 -134.45354492 144.45320313 -133.72070312 143.65625 C-132.40297349 142.22337894 -131.08433272 140.79134596 -129.765625 139.359375 C-127.70660165 137.10550603 -125.69708661 134.81263063 -123.6953125 132.5078125 C-120.12260204 128.41141484 -116.42259462 124.44805842 -112.6875 120.5 C-107.82630822 115.33903572 -103.01503542 110.14453779 -98.29296875 104.85546875 C-95.61690969 101.87946611 -92.90506377 98.93806974 -90.1875 96 C-89.6817041 95.4529541 -89.1759082 94.9059082 -88.65478516 94.34228516 C-87.63169963 93.23581539 -86.60858761 92.1293701 -85.58544922 91.02294922 C-78.98885707 83.88492469 -72.40820295 76.73861434 -66.0625 69.375 C-66.7225 69.045 -67.3825 68.715 -68.0625 68.375 Z " fill="#88CDFE" transform="translate(875.0625,149.625)"/>
<path d="M0 0 C0.66 0.66 1.32 1.32 2 2 C0.23569031 3.34195372 -1.5366791 4.67331668 -3.3125 6 C-4.29863281 6.7425 -5.28476562 7.485 -6.30078125 8.25 C-9 10 -9 10 -12 10 C-10.37744772 8.51814875 -8.75188112 7.03959744 -7.125 5.5625 C-6.22007812 4.73878906 -5.31515625 3.91507813 -4.3828125 3.06640625 C-2 1 -2 1 0 0 Z " fill="#10B1FF" transform="translate(391,819)"/>
</svg>
